<?xml version="1.0" encoding="UTF-8" standalone="no"?>
<!-- Generator: Adobe Illustrator 19.0.0, SVG Export Plug-In . SVG Version: 6.00 Build 0)  -->

<svg
   xmlns:dc="http://purl.org/dc/elements/1.1/"
   xmlns:cc="http://creativecommons.org/ns#"
   xmlns:rdf="http://www.w3.org/1999/02/22-rdf-syntax-ns#"
   xmlns:svg="http://www.w3.org/2000/svg"
   xmlns="http://www.w3.org/2000/svg"
   xmlns:sodipodi="http://sodipodi.sourceforge.net/DTD/sodipodi-0.dtd"
   xmlns:inkscape="http://www.inkscape.org/namespaces/inkscape"
   version="1.1"
   id="Layer_1"
   x="0px"
   y="0px"
   viewBox="0 0 512 512"
   style="enable-background:new 0 0 512 512;"
   xml:space="preserve"
   sodipodi:docname="note-svgrepo-com.svg"
   inkscape:version="0.92.3 (2405546, 2018-03-11)"><metadata
   id="metadata969"><rdf:RDF><cc:Work
       rdf:about=""><dc:format>image/svg+xml</dc:format><dc:type
         rdf:resource="http://purl.org/dc/dcmitype/StillImage" /><dc:title></dc:title></cc:Work></rdf:RDF></metadata><defs
   id="defs967">
	
</defs><sodipodi:namedview
   pagecolor="#ffffff"
   bordercolor="#666666"
   borderopacity="1"
   objecttolerance="10"
   gridtolerance="10"
   guidetolerance="10"
   inkscape:pageopacity="0"
   inkscape:pageshadow="2"
   inkscape:window-width="1853"
   inkscape:window-height="1025"
   id="namedview965"
   showgrid="false"
   inkscape:zoom="1.1656213"
   inkscape:cx="447.16423"
   inkscape:cy="230.80491"
   inkscape:window-x="67"
   inkscape:window-y="27"
   inkscape:window-maximized="1"
   inkscape:current-layer="layer2" />
<g
   id="g930">
		<g
   id="g928">
			<path
   inkscape:connector-curvature="0"
   id="path922"
   d="M 493.268,0 H 18.732 C 8.387,0 0,8.387 0,18.732 V 493.269 C 0,503.613 8.387,512 18.732,512 h 307.572 c 0.004,0 0.009,0 0.013,0 4.757,0 9.671,-1.906 13.248,-5.487 L 506.513,339.564 c 3.413,-3.41 5.487,-8.208 5.487,-13.245 V 18.732 C 512,8.387 503.613,0 493.268,0 Z M 345.052,448.046 V 345.051 h 102.994 c -29.804,29.804 -73.191,73.191 -102.994,102.995 z M 474.537,307.587 H 326.32 c -10.345,0 -18.732,8.387 -18.732,18.732 V 474.537 H 37.463 V 37.463 h 437.073 v 270.124 z" />
			<path
   inkscape:connector-curvature="0"
   id="path924"
   d="m 118.026,157.043 h 275.949 c 10.345,0 18.732,-8.387 18.732,-18.732 0,-10.345 -8.387,-18.732 -18.732,-18.732 H 118.026 c -10.345,0 -18.732,8.387 -18.732,18.732 0,10.345 8.387,18.732 18.732,18.732 z" />
			<path
   inkscape:connector-curvature="0"
   id="path926"
   d="m 118.026,256.579 h 275.949 c 10.345,0 18.732,-8.387 18.732,-18.732 0,-10.345 -8.387,-18.732 -18.732,-18.732 H 118.026 c -10.345,0 -18.732,8.387 -18.732,18.732 0,10.346 8.387,18.732 18.732,18.732 z" />
		</g>
	</g>
<g
   id="g934">
</g>
<g
   id="g936">
</g>
<g
   id="g938">
</g>
<g
   id="g940">
</g>
<g
   id="g942">
</g>
<g
   id="g944">
</g>
<g
   id="g946">
</g>
<g
   id="g948">
</g>
<g
   id="g950">
</g>
<g
   id="g952">
</g>
<g
   id="g954">
</g>
<g
   id="g956">
</g>
<g
   id="g958">
</g>
<g
   id="g960">
</g>
<g
   id="g962">
</g>
<rect
   style="fill:#ffffff;fill-opacity:1;stroke:#bab8b8;stroke-width:0;stroke-linejoin:round;stroke-miterlimit:4;stroke-dasharray:none;stroke-dashoffset:0;stroke-opacity:1"
   id="rect1717"
   width="377.93365"
   height="174.10426"
   x="64.90995"
   y="103.7346" /><g
   inkscape:groupmode="layer"
   id="layer1"
   inkscape:label="Hobbes" /><g
   inkscape:groupmode="layer"
   id="layer2"
   inkscape:label="Layer 1"><g
     transform="matrix(0.60778,0,0,0.60778,96.043034,21.874947)"
     id="g1068"><g
       id="g1066"><g
         id="g1064"><circle
           cx="175.48199"
           cy="227.478"
           r="22.086"
           id="circle1058" /><path
           inkscape:connector-curvature="0"
           d="M 512,135.392 C 512,88.042 473.479,49.52 426.129,49.52 396.896,49.52 370.515,64.069 354.882,87.371 293.11,37.736 220.931,36.1 157.12,87.371 141.487,64.068 115.106,49.52 85.872,49.52 38.521,49.519 0,88.042 0,135.392 0,175.587 28.048,210.911 68.109,219.402 20.91,357.305 86.722,462.481 256,462.481 c 170.361,0 234.813,-105.8 187.779,-243.055 C 484.373,210.877 512,175.124 512,135.392 Z m -478.609,0 c 0,-28.938 23.542,-52.48 52.48,-52.48 19.736,0 37.35,10.843 46.323,27.762 -0.299,0.322 -0.592,0.654 -0.889,0.979 -0.06,0.066 -0.12,0.133 -0.18,0.198 -20.48,22.327 -37.495,48.906 -50.155,75.843 -25.357,-2.245 -47.579,-23.748 -47.579,-52.302 z m 391.363,172.046 h -62.996 c -9.22,0 -16.696,7.475 -16.696,16.696 0,9.221 7.475,16.696 16.696,16.696 h 57.833 c -4.155,14.393 -10.88,27.609 -20.853,39.381 l -29.909,-13.95 c -8.356,-3.899 -18.291,-0.284 -22.188,8.073 -3.898,8.357 -0.284,18.291 8.073,22.189 l 15.764,7.353 c -28.557,17.038 -64.424,23.378 -97.782,24.853 V 373.69 l 29.316,-33.852 c 9.338,-10.783 1.67,-27.625 -12.621,-27.625 h -66.783 c -14.253,0 -21.982,16.816 -12.621,27.625 l 29.316,33.852 v 55.036 c -33.087,-1.473 -68.976,-7.778 -97.64,-24.917 l 15.622,-7.286 c 8.357,-3.898 11.971,-13.832 8.073,-22.189 -3.898,-8.357 -13.832,-11.972 -22.189,-8.073 l -29.748,13.876 C 103.51,368.448 96.783,355.361 92.498,340.831 h 57.744 c 9.22,0 16.696,-7.475 16.696,-16.696 0,-9.221 -7.475,-16.696 -16.696,-16.696 H 87.137 C 83.369,219.181 154.574,98.279 239.305,84.302 v 44.472 c 0,9.22 7.475,16.696 16.696,16.696 9.22,0 16.696,-7.475 16.696,-16.696 V 84.302 C 358.5,98.456 428.134,219.457 424.754,307.438 Z m 6.164,-119.733 c -13.102,-27.927 -29.951,-54.245 -51.112,-77.031 8.973,-16.918 26.586,-27.762 46.323,-27.762 28.938,0 52.48,23.542 52.48,52.48 0,28.48 -22.17,50.109 -47.691,52.313 z"
           id="path1060" /><circle
           cx="337.19"
           cy="227.478"
           r="22.086"
           id="circle1062" /></g></g></g></g></svg>